            
            
            <svg
              id="Layer_1"
              data-name="Layer 1"
              xmlns="http://www.w3.org/2000/svg"
              viewBox="0 0 176.01 184.06"
            >

            <defs>
            <style>
                .cls-1 {
                    fill: #c5a561;
                    }

                .cls-1,
                .cls-2,
                .cls-3 {
                stroke-width: 0px;
                }

                .cls-2,
                .cls-3 {
                fill: #00205b;
                }

                .cls-3 {
                fill-rule: evenodd;
                }
            </style>
            </defs>
              <rect
                class="cls-2"
                x="40.73"
                y="132.72"
                width="94.59"
                height="26.56"
                rx="3.55"
                ry="3.55"
              />
              <path
                class="cls-1"
                d="M99.84,25.96c-32.62-6.52-64.47,14.71-71,47.33-4.62,23.1,4.68,45.81,22.08,59.42h5.11c-18.62-12.55-28.92-35.48-24.25-58.83,5.45-27.22,29.45-46.09,56.21-46.09,3.71,0,7.48.36,11.26,1.12,27.22,5.44,46.09,29.44,46.09,56.19,0,3.72-.36,7.49-1.12,11.27-2.99,14.95-11.59,27.85-24.25,36.34h5.13c11.42-8.87,19.19-21.42,22.06-35.75,6.53-32.62-14.7-64.47-47.32-71Z"
              />
              <g>
                <path
                  class="cls-2"
                  d="M58.48,100.65v-.02c0-1.25-.92-2.3-2.21-2.3s-2.19,1.02-2.19,2.28v.02c0,1.25.92,2.3,2.21,2.3s2.19-1.02,2.19-2.27h0ZM52.4,100.65v-.02c0-2.08,1.64-3.78,3.89-3.78s3.87,1.68,3.87,3.76v.02c0,2.08-1.64,3.78-3.89,3.78s-3.87-1.68-3.87-3.76h0Z"
                />
                <polygon
                  class="cls-2"
                  points="61.81 96.98 67.37 96.98 67.37 98.44 63.42 98.44 63.42 99.99 66.9 99.99 66.9 101.45 63.42 101.45 63.42 104.28 61.81 104.28 61.81 96.98 61.81 96.98"
                />
                <path
                  class="cls-2"
                  d="M76.57,101.25l-.97-2.37-.97,2.37h1.94ZM74.88,96.95h1.48l3.13,7.36h-1.68l-.67-1.64h-3.09l-.67,1.64h-1.64l3.13-7.36h0Z"
                />
                <polygon
                  class="cls-2"
                  points="80.84 96.98 82.57 96.98 84.49 100.06 86.41 96.98 88.14 96.98 88.14 104.28 86.55 104.28 86.55 99.51 84.49 102.63 84.45 102.63 82.41 99.54 82.41 104.28 80.84 104.28 80.84 96.98 80.84 96.98"
                />
                <polygon
                  class="cls-2"
                  points="89.94 96.98 95.45 96.98 95.45 98.41 91.53 98.41 91.53 99.89 94.98 99.89 94.98 101.32 91.53 101.32 91.53 102.85 95.5 102.85 95.5 104.28 89.94 104.28 89.94 96.98 89.94 96.98"
                />
                <path
                  class="cls-2"
                  d="M100.38,100.52c.78,0,1.23-.42,1.23-1.03v-.02c0-.69-.48-1.04-1.26-1.04h-1.6v2.1h1.63ZM97.14,96.98h3.34c.93,0,1.65.26,2.13.74.41.41.63.98.63,1.67v.02c0,1.18-.64,1.92-1.57,2.26l1.78,2.61h-1.88l-1.57-2.34h-1.26v2.34h-1.61v-7.31h0Z"
                />
                <polygon
                  class="cls-2"
                  points="104.97 96.98 106.58 96.98 106.58 104.28 104.97 104.28 104.97 96.98 104.97 96.98"
                />
                <path
                  class="cls-2"
                  d="M108.29,100.65v-.02c0-2.08,1.57-3.78,3.81-3.78,1.38,0,2.2.46,2.88,1.13l-1.02,1.18c-.56-.51-1.14-.82-1.87-.82-1.23,0-2.12,1.02-2.12,2.28v.02c0,1.25.87,2.3,2.12,2.3.83,0,1.35-.33,1.92-.86l1.02,1.03c-.75.8-1.59,1.3-2.99,1.3-2.15,0-3.75-1.66-3.75-3.76h0Z"
                />
                <path
                  class="cls-2"
                  d="M120.73,101.25l-.97-2.37-.97,2.37h1.94ZM119.04,96.95h1.48l3.13,7.36h-1.68l-.67-1.64h-3.09l-.67,1.64h-1.64l3.13-7.36h0Z"
                />
                <path
                  class="cls-2"
                  d="M99.73,81.64l2.42-.71v-3.03h-15.7v3.03l2.42.71c1.72.53,1.78.72,1.78,2.09v4.12c-.87.17-2.5.19-3.56.03-5.67-.83-7.24-5.01-7.24-9.39,0-2.46.83-4.7,2.71-6.52,1.34-1.3,3.4-2.48,6.52-2.36,1.36.05,2.93.7,3.47,1.08,1.55,1.08,1.92,2.36,2.33,3.92h4.02l-.02-6.17s-4.05-2.77-11.06-2.77c-5.57,0-16.51,2.32-16.51,13.2,0,6.68,5.61,11.89,15.37,12.39,6.72.34,11.28-1.65,11.28-1.65v-5.88c0-1.37.06-1.57,1.77-2.09"
                />
                <path
                  class="cls-2"
                  d="M61.56,77.23c-.44.4-1.43.89-2.23,1.09-2.2.56-5.02.34-5.13.34v-9.33c1.86,0,5.12-.28,7.21,1.22,1.03.74,1.63,1.92,1.66,3.44.03,1.07-.37,2.25-1.52,3.23M60.98,66.27c-1.17-.13-4.56-.16-4.56-.16h-13.8v3.03l2.32.71c1.88.61,1.88.79,1.88,2.17v13.13c.01,1.38.01,1.47-1.87,2.06l-2.31.66v3.04h15.76v-3.04l-2.31-.66c-1.88-.6-1.88-.68-1.88-2.06v-3.17h3.74c3.43-.05,6.21-.27,8.69-1.67,2.36-1.34,3.66-3.82,3.66-6.41,0-4.18-3.31-7.01-9.31-7.62"
                />
                <path
                  class="cls-2"
                  d="M111.35,82.4c1.59-3.03,3.83-7.36,3.98-7.67.16.36,2.2,4.59,3.7,7.67h-7.68ZM131.29,87.27c-1.4-.52-1.72-.77-2.13-1.66l-9.8-19.49h-4.06l-10.96,19.87c-.4.75-.76.92-1.67,1.25l-2.49.76v2.9h12.16v-2.97l-2.7-.7c-.58-.14-.55-.53-.41-.78,0,0,.35-.67.88-1.68h10.17c.54,1.02.69,1.22.86,1.6.26.54-.24.78-.88.96l-2.43.67v2.91h15.61v-2.86s-2.14-.78-2.15-.78"
                />
                <polygon
                  class="cls-2"
                  points="123.57 66.5 122.82 66.5 122.82 66.11 124.74 66.11 124.74 66.5 123.99 66.5 123.99 68.47 123.57 68.47 123.57 66.5 123.57 66.5"
                />
                <polygon
                  class="cls-2"
                  points="125.17 66.11 125.62 66.11 126.34 67.23 127.06 66.11 127.5 66.11 127.5 68.47 127.08 68.47 127.08 66.78 126.34 67.89 126.32 67.89 125.58 66.79 125.58 68.47 125.17 68.47 125.17 66.11 125.17 66.11"
                />
                <polygon
                  class="cls-2"
                  points="79.25 116.55 78.19 116.81 77.92 115.72 79.65 115.2 80.56 115.2 80.56 121.29 79.25 121.29 79.25 116.55 79.25 116.55"
                />
                <path
                  class="cls-2"
                  d="M85.46,117.22v-.02c0-.54-.4-.92-1.06-.92s-1.03.38-1.03.92v.02c0,.54.4.91,1.05.91s1.04-.38,1.04-.9M82.19,120.68l.7-1.01c.44.35.81.52,1.32.52.74,0,1.14-.56,1.23-1.37-.29.25-.7.41-1.23.41-1.31,0-2.16-.73-2.16-1.95v-.02c0-1.22.94-2.12,2.3-2.12.81,0,1.29.2,1.74.66.43.43.72,1.09.72,2.28v.02c0,1.96-.92,3.3-2.64,3.3-.88,0-1.48-.29-1.98-.72"
                />
                <polygon
                  class="cls-2"
                  points="89.04 116.55 87.98 116.81 87.71 115.72 89.44 115.2 90.35 115.2 90.35 121.29 89.04 121.29 89.04 116.55 89.04 116.55"
                />
                <path
                  class="cls-2"
                  d="M95.27,119.37v-.02c0-.51-.4-.88-1.05-.88s-1.04.36-1.04.87v.02c0,.51.4.9,1.05.9s1.04-.37,1.04-.89M92.54,120.75c-.44-.44-.72-1.09-.72-2.29v-.02c0-1.86.85-3.3,2.65-3.3.82,0,1.36.24,1.89.67l-.7,1.03c-.4-.3-.72-.48-1.23-.48-.75,0-1.13.6-1.22,1.4.3-.2.66-.39,1.25-.39,1.2,0,2.12.67,2.12,1.93v.02c0,1.23-.99,2.09-2.3,2.09-.79,0-1.32-.22-1.74-.65"
                />
                <path
                  class="cls-2"
                  d="M114.56,115.12c-.75-.08-1.22-.09-2.84.21-1.4.31-2.2.62-2.68.88-.3-.43-2.89-3.84-5.28-7.03h-2.34l7.24,11.55.11.07c.1.06,1.07.61,3.83.55,1.73-.04,3.94-.48,4.06-.51,1.18-.31,1.86-2.67,2.1-3.67l.09-.36-.28-.23c-.06-.05-1.54-1.26-4.01-1.46h0Z"
                />
                <path
                  class="cls-2"
                  d="M59.94,115.12c.75-.08,1.22-.09,2.84.21,1.4.31,2.2.62,2.68.88.3-.43,2.89-3.84,5.28-7.03h2.34l-7.24,11.55-.11.07c-.1.06-1.07.61-3.83.55-1.73-.04-3.94-.48-4.06-.51-1.17-.31-1.86-2.67-2.1-3.67l-.09-.36.28-.23c.06-.05,1.54-1.26,4.01-1.46h0Z"
                />
                <path
                  class="cls-3"
                  d="M91.16,44.22c-.8.06-1.17,1.01-1.02,1.95.91-.1,1.76-.26,2.53-.5-.08-.34-.23-.66-.44-.92-.23-.27-.58-.57-1.07-.53M83.45,44.26c-.43-.12-.84.1-1.07.31-.3.28-.52.68-.62,1.11.78.23,1.62.4,2.53.5.12-.84-.15-1.71-.84-1.91M87.15,44.2c-.65.05-1.16.28-1.53.65-.34.35-.57.83-.63,1.39,1.39.15,3.05.13,4.43.01-.06-.62-.3-1.1-.7-1.46-.33-.3-.93-.63-1.58-.59M92.95,49.23c-.02-.37-.12-.68-.31-.92-.17-.24-.42-.44-.79-.44-.6,0-.98.41-1.21.79-.27.44-.42.96-.39,1.56-.24.04-.5.11-.74.13-.02-.67-.3-1.18-.69-1.54-.38-.35-.92-.61-1.62-.61s-1.22.26-1.62.61c-.4.36-.67.87-.7,1.54-.26-.04-.51-.08-.74-.14.03-1.01-.36-1.8-1.01-2.17-.39-.23-.89-.19-1.19.07-.29.25-.45.63-.48,1.12-.04.01-1.04-.87-1.29-1.19,0,0,0,0,0,0-.01-.14-.02-.29-.02-.44,0-3.88,3.16-7.03,7.03-7.03s7.03,3.16,7.03,7.03c0,.11,0,.22,0,.34-.17.27-.53.8-1.29,1.31M92.53,50.74c-.25.37-.61.74-1.14.78-.26.02-.52-.09-.7-.25-.26-.24-.38-.59-.43-1.05.99-.21,1.89-.51,2.67-.95,0,0,.01,0,.01.01.01.53-.13,1.06-.41,1.46M88.82,51.9c-.39.36-.91.62-1.62.62s-1.24-.26-1.62-.62c-.39-.36-.67-.86-.68-1.53,0-.02,0-.03.01-.03,1.38.23,3.23.22,4.6.01,0,.69-.29,1.18-.69,1.54M83.09,51.51c-.53,0-.92-.39-1.17-.75-.28-.41-.45-.9-.44-1.49v-.02c.78.43,1.68.74,2.67.96-.05.67-.39,1.3-1.06,1.31M87.21,39.15c-4.65,0-8.43,3.79-8.43,8.43s3.78,8.43,8.43,8.43,8.44-3.78,8.44-8.43-3.78-8.43-8.44-8.43"
                />
                <path
                  class="cls-2"
                  d="M75.85,61.6l-9.01-16.25s-1.19-.25-2.29.34c-1.13.6-1.5,1.73-1.5,1.73l9.87,15.71c.93-.58,1.91-1.09,2.92-1.53h0Z"
                />
                <path
                  class="cls-2"
                  d="M101.45,63.15l9.89-15.74s-.37-1.13-1.5-1.73c-1.1-.59-2.29-.34-2.29-.34l-9.02,16.28c1.57.68,2.57,1.29,2.92,1.52h0Z"
                />
              </g>
              <g>
                <polygon
                  class="cls-1"
                  points="50.55 140.17 53.32 140.17 56.38 145.1 59.44 140.17 62.21 140.17 62.21 151.82 59.66 151.82 59.66 144.22 56.38 149.19 56.31 149.19 53.07 144.26 53.07 151.82 50.55 151.82 50.55 140.17 50.55 140.17"
                />
                <polygon
                  class="cls-1"
                  points="65.33 140.17 74.12 140.17 74.12 142.45 67.88 142.45 67.88 144.81 73.37 144.81 73.37 147.09 67.88 147.09 67.88 149.54 74.2 149.54 74.2 151.82 65.33 151.82 65.33 140.17 65.33 140.17"
                />
                <polygon
                  class="cls-1"
                  points="76.82 140.17 79.58 140.17 82.64 145.1 85.7 140.17 88.47 140.17 88.47 151.82 85.92 151.82 85.92 144.22 82.64 149.19 82.58 149.19 79.33 144.26 79.33 151.82 76.82 151.82 76.82 140.17 76.82 140.17"
                />
                <path
                  class="cls-1"
                  d="M97.14,149.58c1.13,0,1.81-.4,1.81-1.27v-.03c0-.78-.58-1.27-1.9-1.27h-2.96v2.56h3.05ZM96.45,144.88c1.13,0,1.85-.37,1.85-1.23v-.03c0-.77-.6-1.2-1.68-1.2h-2.53v2.46h2.36ZM91.59,140.17h5.41c1.33,0,2.38.37,3.05,1.03.53.53.8,1.18.8,1.98v.03c0,1.32-.7,2.05-1.53,2.51,1.35.52,2.18,1.3,2.18,2.86v.03c0,2.13-1.73,3.2-4.36,3.2h-5.54v-11.65h0Z"
                />
                <polygon
                  class="cls-1"
                  points="103.94 140.17 112.73 140.17 112.73 142.45 106.49 142.45 106.49 144.81 111.98 144.81 111.98 147.09 106.49 147.09 106.49 149.54 112.82 149.54 112.82 151.82 103.94 151.82 103.94 140.17 103.94 140.17"
                />
                <path
                  class="cls-1"
                  d="M120.59,145.83c1.25,0,1.96-.67,1.96-1.65v-.03c0-1.1-.77-1.66-2.01-1.66h-2.55v3.35h2.6ZM115.43,140.17h5.33c1.48,0,2.63.42,3.39,1.18.65.65,1,1.56,1,2.66v.03c0,1.88-1.02,3.06-2.5,3.61l2.85,4.16h-3l-2.5-3.73h-2.01v3.73h-2.56v-11.65h0Z"
                />
              </g>
            </svg>